<?xml version="1.0" standalone="no"?>
<!DOCTYPE svg PUBLIC "-//W3C//DTD SVG 20010904//EN"
 "http://www.w3.org/TR/2001/REC-SVG-20010904/DTD/svg10.dtd">
<svg version="1.0" xmlns="http://www.w3.org/2000/svg"
 width="130.000000pt" height="130.000000pt" viewBox="0 0 130.000000 130.000000"
 preserveAspectRatio="xMidYMid meet">
<metadata>
Created by potrace 1.14, written by Peter Selinger 2001-2017
</metadata>
<g transform="translate(0.000000,130.000000) scale(0.100000,-0.100000)"
fill="#000000" stroke="none">
<path d="M582 1279 c-153 -19 -298 -92 -399 -202 -62 -68 -133 -203 -143 -269
-1 -4 -6 -22 -11 -40 -15 -52 -12 -191 7 -265 58 -237 256 -429 486 -474 54
-10 187 -13 223 -5 96 21 125 30 177 56 86 43 115 65 188 140 205 213 230 540
59 791 -97 144 -276 251 -443 265 -33 3 -65 7 -71 8 -5 1 -38 -1 -73 -5z m222
-41 c220 -61 380 -223 437 -445 79 -308 -110 -634 -421 -728 -250 -74 -528 28
-677 250 -94 139 -126 328 -82 486 91 329 424 526 743 437z"/>
<path d="M622 1170 c0 -14 2 -19 5 -12 2 6 2 18 0 25 -3 6 -5 1 -5 -13z"/>
<path d="M541 1155 c0 -16 3 -24 6 -16 3 8 16 -5 34 -35 25 -42 28 -45 27 -22
-1 15 -6 26 -10 25 -4 -1 -19 16 -32 38 l-25 40 0 -30z"/>
<path d="M725 1169 c-4 -6 -5 -12 -2 -15 2 -3 7 2 10 11 7 17 1 20 -8 4z"/>
<path d="M501 1153 c-1 -12 4 -25 9 -28 12 -7 12 2 0 30 -8 19 -9 19 -9 -2z"/>
<path d="M807 1153 c-4 -3 -7 -11 -7 -17 0 -7 3 -7 8 0 4 7 16 14 27 17 19 5
19 5 -1 6 -11 0 -24 -2 -27 -6z"/>
<path d="M443 1108 c7 -26 13 -36 15 -25 4 18 4 18 18 0 14 -17 14 -16 4 5 -6
13 -16 20 -22 16 -7 -5 -9 -2 -5 9 3 8 0 21 -8 27 -11 9 -11 4 -2 -32z"/>
<path d="M715 1129 c-4 -6 -5 -12 -2 -15 2 -3 7 2 10 11 7 17 1 20 -8 4z"/>
<path d="M860 1081 c-29 -57 -29 -60 -10 -66 11 -3 24 -3 30 0 12 7 43 65 36
65 -3 0 -12 -13 -21 -30 -15 -30 -45 -41 -45 -17 0 6 8 26 18 42 21 34 33 65
27 65 -3 0 -18 -27 -35 -59z"/>
<path d="M372 1118 c-7 -7 -12 -16 -12 -22 0 -5 7 -1 15 10 16 21 14 22 53
-33 7 -10 5 -3 -5 16 -21 39 -34 46 -51 29z"/>
<path d="M845 1119 c-4 -6 -5 -12 -2 -15 2 -3 7 2 10 11 7 17 1 20 -8 4z"/>
<path d="M917 1109 c4 -13 8 -18 11 -10 2 7 -1 18 -6 23 -8 8 -9 4 -5 -13z"/>
<path d="M786 1105 c-3 -9 -6 -22 -5 -28 0 -7 5 -1 10 12 5 13 8 26 5 28 -2 2
-6 -3 -10 -12z"/>
<path d="M498 1080 c-3 -17 -1 -33 4 -36 4 -3 8 11 8 30 0 44 -6 47 -12 6z"/>
<path d="M552 1075 c0 -16 2 -22 5 -12 2 9 2 23 0 30 -3 6 -5 -1 -5 -18z"/>
<path d="M370 1075 c0 -5 9 -23 20 -40 26 -39 26 -25 0 17 -11 18 -20 29 -20
23z"/>
<path d="M735 1060 c-3 -6 1 -7 9 -4 18 7 21 14 7 14 -6 0 -13 -4 -16 -10z"/>
<path d="M432 1022 c-11 -25 -11 -25 4 -10 9 9 15 21 13 27 -2 6 -10 -2 -17
-17z"/>
<path d="M396 916 c-15 -60 61 -194 112 -197 9 -1 23 -2 31 -3 7 0 33 -29 57
-62 l44 -62 -44 -58 c-24 -33 -67 -80 -95 -106 -50 -47 -60 -69 -41 -98 7 -11
15 -12 35 -5 20 7 33 25 50 68 27 66 93 177 105 177 12 0 88 -131 106 -184 19
-54 52 -78 79 -56 27 22 16 50 -37 98 -28 26 -71 73 -95 106 l-43 58 43 61
c29 40 52 61 68 64 27 4 41 21 98 116 55 91 52 95 -9 9 -27 -39 -54 -74 -61
-77 -12 -8 34 70 59 98 8 9 12 17 9 17 -4 0 -25 -25 -47 -56 -33 -44 -44 -53
-55 -44 -11 9 -5 25 37 83 62 86 35 69 -34 -23 -38 -49 -48 -70 -43 -88 4 -17
-5 -40 -32 -83 -21 -32 -40 -59 -43 -59 -3 1 -22 26 -43 57 -28 41 -37 63 -32
80 7 29 -10 90 -34 120 -27 33 -91 73 -116 73 -16 0 -25 -8 -29 -24z"/>
<path d="M826 874 c-26 -36 -50 -74 -53 -83 -5 -14 54 64 94 126 32 49 4 20
-41 -43z"/>
<path d="M220 369 c-21 -17 -22 -19 -3 -10 16 8 23 8 26 -2 3 -6 4 -2 4 11 -1
12 -1 22 -2 22 0 0 -11 -10 -25 -21z"/>
<path d="M1040 361 c0 -6 4 -13 10 -16 6 -3 7 1 4 9 -7 18 -14 21 -14 7z"/>
<path d="M263 353 c4 -3 1 -13 -6 -22 -11 -14 -10 -14 5 -2 16 12 16 31 1 31
-4 0 -3 -3 0 -7z"/>
<path d="M664 330 c-1 -14 1 -19 3 -12 3 6 10 12 17 12 7 0 13 6 13 13 0 25
-32 13 -33 -13z"/>
<path d="M713 338 c0 -17 4 -25 12 -22 6 3 12 11 12 19 0 8 -4 12 -8 9 -4 -2
-9 2 -12 8 -2 7 -4 1 -4 -14z"/>
<path d="M982 338 c-7 -7 -12 -17 -12 -22 0 -6 5 -3 11 7 6 9 15 14 21 11 7
-4 8 -2 4 4 -9 15 -9 15 -24 0z"/>
<path d="M586 327 c3 -10 9 -15 12 -12 3 3 0 11 -7 18 -10 9 -11 8 -5 -6z"/>
<path d="M299 328 c-5 -18 -6 -38 -1 -34 7 8 12 36 6 36 -2 0 -4 -1 -5 -2z"/>
<path d="M261 297 c-13 -21 -12 -21 5 -5 10 10 16 20 13 22 -3 3 -11 -5 -18
-17z"/>
<path d="M1009 307 c-15 -11 -14 -14 10 -31 26 -20 26 -20 9 0 -14 16 -15 23
-6 32 15 15 8 15 -13 -1z"/>
<path d="M343 303 c4 -6 -2 -22 -13 -35 -14 -18 -15 -25 -5 -25 8 0 13 3 12 6
-1 3 4 16 11 28 9 16 9 24 0 29 -6 4 -8 3 -5 -3z"/>
<path d="M950 276 c0 -2 8 -10 18 -17 15 -13 16 -12 3 4 -13 16 -21 21 -21 13z"/>
<path d="M375 254 c-11 -8 -19 -18 -18 -22 0 -4 -2 -6 -6 -5 -4 1 -8 -7 -8
-18 -2 -18 1 -17 19 6 15 19 23 23 33 15 19 -16 31 8 14 25 -12 12 -17 11 -34
-1z m35 -15 c0 -6 -4 -7 -10 -4 -5 3 -10 11 -10 16 0 6 5 7 10 4 6 -3 10 -11
10 -16z"/>
<path d="M915 240 c10 -11 20 -20 23 -20 3 0 -3 9 -13 20 -10 11 -20 20 -23
20 -3 0 3 -9 13 -20z"/>
<path d="M446 198 c1 -16 5 -32 9 -36 4 -4 6 0 3 8 -3 8 -2 24 3 36 5 14 3 21
-5 21 -7 0 -11 -12 -10 -29z"/>
<path d="M809 204 c-5 -15 -7 -29 -4 -32 3 -3 5 1 5 9 0 12 2 11 10 -1 8 -12
11 -13 22 -2 11 11 10 13 -2 10 -10 -2 -15 4 -14 20 1 29 -4 28 -17 -4z"/>
<path d="M840 226 c0 -2 8 -10 18 -17 15 -13 16 -12 3 4 -13 16 -21 21 -21 13z"/>
<path d="M950 221 c0 -6 4 -13 10 -16 6 -3 7 1 4 9 -7 18 -14 21 -14 7z"/>
<path d="M369 198 c-6 -13 -8 -20 -4 -16 4 4 14 0 22 -10 13 -15 13 -15 4 5
-14 28 -14 36 1 27 7 -4 8 -3 4 4 -10 17 -14 15 -27 -10z"/>
<path d="M485 180 c-11 -16 -23 -30 -27 -30 -5 0 -8 -5 -8 -11 0 -8 4 -8 14 0
11 9 15 9 20 -1 3 -7 3 -2 0 11 -5 17 -3 21 6 16 8 -5 11 -4 6 3 -3 5 -1 12 5
14 7 2 10 9 8 16 -2 6 -13 -2 -24 -18z"/>
<path d="M916 197 c3 -10 9 -15 12 -12 3 3 0 11 -7 18 -10 9 -11 8 -5 -6z"/>
<path d="M544 185 c-3 -8 -4 -20 -1 -27 3 -7 6 -3 6 9 1 12 7 24 14 26 9 4 9
6 -1 6 -7 1 -15 -6 -18 -14z"/>
<path d="M662 176 c7 -8 15 -12 17 -11 5 6 -10 25 -20 25 -5 0 -4 -6 3 -14z"/>
<path d="M716 175 c4 -8 8 -15 10 -15 2 0 4 7 4 15 0 8 -4 15 -10 15 -5 0 -7
-7 -4 -15z"/>
<path d="M621 144 c0 -11 3 -14 6 -6 3 7 2 16 -1 19 -3 4 -6 -2 -5 -13z"/>
<path d="M830 153 c0 -19 21 -27 33 -13 9 10 9 11 -2 5 -8 -4 -17 -2 -22 6 -6
9 -9 10 -9 2z"/>
<path d="M640 113 c0 -19 21 -27 33 -13 9 10 9 11 -2 5 -8 -4 -17 -2 -22 6 -6
9 -9 10 -9 2z"/>
<path d="M696 107 c3 -10 9 -15 12 -12 3 3 0 11 -7 18 -10 9 -11 8 -5 -6z"/>
</g>
</svg>
